<svg id="Capa_1" data-name="Capa 1" xmlns="http://www.w3.org/2000/svg" xmlns:xlink="http://www.w3.org/1999/xlink" viewBox="0 0 45 42"><defs><style>.cls-1{fill:none;}.cls-2{clip-path:url(#clip-path);}.cls-3{isolation:isolate;}.cls-4{clip-path:url(#clip-path-2);}.cls-5{fill:#fff;}</style><clipPath id="clip-path"><path class="cls-1" d="M6.85,21A15,15,0,0,1,27.59,7.14a15,15,0,0,1,4.87,24.46A15,15,0,0,1,8,26.74,14.86,14.86,0,0,1,6.85,21Z"/></clipPath><clipPath id="clip-path-2"><rect class="cls-1" x="6.75" y="6" width="30.25" height="30"/></clipPath></defs><title>REDES</title><g class="cls-2"><g class="cls-3"><g class="cls-4"><path class="cls-5" d="M36.85,21a15,15,0,1,0-15,15h.26V24.32H18.89V20.57h3.22V17.8c0-3.21,2-5,4.82-5a26.18,26.18,0,0,1,2.89.15v3.35h-2c-1.55,0-1.86.74-1.86,1.82v2.39h3.72l-.49,3.76H26v11.1A15,15,0,0,0,36.85,21Z"/></g></g></g></svg>