<svg id="Capa_1" data-name="Capa 1" xmlns="http://www.w3.org/2000/svg" xmlns:xlink="http://www.w3.org/1999/xlink" viewBox="0 0 41 42"><defs><style>.cls-1{fill:none;}.cls-2{clip-path:url(#clip-path);}.cls-3{isolation:isolate;}.cls-4{clip-path:url(#clip-path-2);}.cls-5{fill:#fff;}</style><clipPath id="clip-path"><path class="cls-1" d="M4.85,21A15,15,0,0,1,25.59,7.14a15,15,0,0,1,4.87,24.46,15,15,0,0,1-21.21,0A15,15,0,0,1,4.85,21Z"/></clipPath><clipPath id="clip-path-2"><rect class="cls-1" x="4.75" y="6" width="30.25" height="30"/></clipPath></defs><title>REDES</title><g class="cls-2"><g class="cls-3"><g class="cls-4"><circle class="cls-5" cx="19.85" cy="21" r="2.87"/><path class="cls-5" d="M24.44,17.44a1,1,0,1,1,1-1A1,1,0,0,1,24.44,17.44Zm-4.6,8A4.42,4.42,0,1,1,24.27,21,4.42,4.42,0,0,1,19.85,25.42Zm6.71-9.5a2.85,2.85,0,0,0-1.63-1.63,4.77,4.77,0,0,0-1.6-.3c-.91,0-1.18-.05-3.48-.05s-2.57,0-3.48.05a4.77,4.77,0,0,0-1.6.3,2.85,2.85,0,0,0-1.63,1.63,4.77,4.77,0,0,0-.3,1.6c0,.91-.05,1.18-.05,3.48s0,2.57.05,3.48a4.77,4.77,0,0,0,.3,1.6,2.85,2.85,0,0,0,1.63,1.63,4.76,4.76,0,0,0,1.6.3c.91,0,1.18.05,3.48.05s2.57,0,3.48-.05a4.76,4.76,0,0,0,1.6-.3,2.85,2.85,0,0,0,1.63-1.63,4.77,4.77,0,0,0,.3-1.6c0-.91.05-1.18.05-3.48s0-2.57-.05-3.48A4.76,4.76,0,0,0,26.56,15.92Z"/><path class="cls-5" d="M28.41,24.55a6.32,6.32,0,0,1-.4,2.09,4.4,4.4,0,0,1-2.52,2.52,6.32,6.32,0,0,1-2.09.4c-.92,0-1.21.05-3.55.05s-2.63,0-3.55-.05a6.32,6.32,0,0,1-2.09-.4,4.4,4.4,0,0,1-2.52-2.52,6.32,6.32,0,0,1-.4-2.09c0-.92-.05-1.21-.05-3.55s0-2.63.05-3.55a6.32,6.32,0,0,1,.4-2.09,4.41,4.41,0,0,1,2.52-2.52,6.33,6.33,0,0,1,2.09-.4c.92,0,1.21-.05,3.55-.05s2.63,0,3.55.05a6.33,6.33,0,0,1,2.09.4A4.41,4.41,0,0,1,28,15.36a6.32,6.32,0,0,1,.4,2.09c0,.92.05,1.21.05,3.55S28.45,23.63,28.41,24.55ZM19.85,6a15,15,0,1,0,15,15A15,15,0,0,0,19.85,6Z"/></g></g></g></svg>